<svg t="1574497399540" class="icon" viewBox="0 0 1024 1024" version="1.1" xmlns="http://www.w3.org/2000/svg" p-id="19601" width="32" height="32">
  <path d="M923.648 569.344H705.536c5.12-17.408 7.168-35.84 7.168-54.272 0-111.616-91.136-202.752-202.752-202.752-59.392 0-112.64 25.6-150.528 66.56H151.552c55.296-147.456 196.608-246.784 358.4-246.784s303.104 99.328 358.4 246.784H798.72c-22.528 0-40.96 18.432-40.96 40.96s18.432 40.96 40.96 40.96h124.928c12.288 0 24.576-6.144 31.744-15.36 8.192-10.24 10.24-22.528 8.192-34.816-49.152-211.968-235.52-360.448-453.632-360.448C291.84 49.152 105.472 197.632 56.32 409.6c-3.072 12.288 0 24.576 8.192 34.816s19.456 15.36 31.744 15.36h218.112c-5.12 17.408-7.168 35.84-7.168 54.272C307.2 625.664 398.336 716.8 509.952 716.8c59.392 0 112.64-25.6 150.528-66.56h208.896c-55.296 147.456-196.608 246.784-358.4 246.784s-303.104-99.328-358.4-246.784h73.728c22.528 0 40.96-18.432 40.96-40.96s-18.432-40.96-40.96-40.96H96.256c-12.288 0-24.576 6.144-31.744 15.36-8.192 10.24-10.24 22.528-8.192 34.816 49.152 211.968 235.52 360.448 453.632 360.448 218.112 0 404.48-148.48 453.632-360.448 3.072-12.288 0-24.576-8.192-34.816a41.984 41.984 0 0 0-31.744-14.336z m-413.696 66.56c-66.56 0-120.832-54.272-120.832-120.832 0-66.56 54.272-120.832 120.832-120.832 66.56 0 120.832 54.272 120.832 120.832 0 66.56-54.272 120.832-120.832 120.832z" fill="#1296db" p-id="19602"></path>
  <path d="M509.952 514.048m-68.608 0a68.608 68.608 0 1 0 137.216 0 68.608 68.608 0 1 0-137.216 0Z" fill="#1296db" p-id="19603"></path>
</svg>