<?xml version="1.0" standalone="no"?><!DOCTYPE svg PUBLIC "-//W3C//DTD SVG 1.1//EN" "http://www.w3.org/Graphics/SVG/1.1/DTD/svg11.dtd"><svg class="icon" width="32px" height="32.00px" viewBox="0 0 1024 1024" version="1.1" xmlns="http://www.w3.org/2000/svg"><path d="M512 64C264.8 64 64 264.8 64 512s200.8 448 448 448 448-200.8 448-448S759.2 64 512 64zM128 512c0-212 172-384 384-384s384 172 384 384c0 83.2-26.4 159.2-71.2 222.4L620.8 530.4c34.4-71.2 21.6-159.2-37.6-218.4-52.8-52.8-128-68-193.6-47.2-2.4 12-3.2 15.2-5.6 27.2l64 60v56l-40 40h-56l-60-64c-12 2.4-15.2 3.2-27.2 5.6C244 456 260 531.2 312 584c59.2 59.2 147.2 71.2 218.4 37.6l204 204c-62.4 44.8-139.2 71.2-222.4 71.2C300 896 128 724 128 512z" fill="#9b9b9b" /></svg>