<svg t="1574587670094" class="icon" viewBox="0 0 1133 1024" version="1.1" xmlns="http://www.w3.org/2000/svg" p-id="14610" width="30" height="30">
  <path d="M231.20986156 897.71810469v0.32080781a91.03817063 91.03817063 0 0 1-25.98544406 63.68632125 87.50928281 87.50928281 0 0 1-125.1626325-0.11881781 91.002525 91.002525 0 0 1-25.89039-63.88831125V513.99613813a45.15075 45.15075 0 0 1 28.51626281-42.1921875l2.29318313-5.23986375c-30.71439187-5.94088781-52.88578688-22.88430094-52.88578688-42.85756688 0-24.95173031 34.52844187-45.15075 77.12461032-45.15075a129.83217 129.83217 0 0 1 14.09178656 0.74855156l109.43116031-302.15357156c10.97876156-24.95173031 31.93821469-45.15075 46.84984406-45.15075h567.09342c14.91162938 0 35.8710825 20.19901969 46.83796219 45.15075l95.54136375 217.43650688-88.61428781-35.50274813-58.51774875-132.71944125a44.21208937 44.21208937 0 0 0-40.39803938-26.6389425H324.6243875a44.22397125 44.22397125 0 0 0-40.39803938 26.6389425l-99.50987718 278.79399937a45.93494719 45.93494719 0 0 0 3.20808 43.02391219 44.05762687 44.05762687 0 0 0 37.15431468 20.62676438h183.16946344c0 11.38274156 2.59022719 35.52651094 8.31724313 67.726125H164.77885062c-24.44081344 0-44.25961688 20.19901969-44.25961687 45.15075v203.178375c0 24.95173031 19.8188025 45.15075 44.25961687 45.15075h349.32422344a601.02777375 601.02777375 0 0 0 41.66938969 67.726125z m-86.73696656 0.58220718h-2.73280875l1.34264063 0.48715313z m142.04663531-181.16144343c-55.00074281 0-99.59304937-25.28442-99.59304843-56.42655563s44.59230656-56.42655563 99.59304843-56.42655562 99.5811675 25.27253813 99.5811675 56.42655562-44.59230656 56.42655563-99.5811675 56.42655563z m491.60849625 274.84924968c-68.51032219 0-144.13782844-63.62691188-205.28145-161.8892025-60.47824125-97.19293031-98.25040875-241.58027625-98.25040875-346.3062525 0-17.43056625 4.22991281-21.76741406 15.57700875-29.79949499a68.6766675 68.6766675 0 0 1 6.17852438-3.79028719c3.42195187-1.90108406 8.05584469-4.19426719 14.06802281-7.129065q24.95173031-11.59661344 50.17674188-22.45655813 98.35734469-42.29912344 197.34442218-83.18431594a52.46992406 52.46992406 0 0 1 40.2792225 1e-8q138.22070437 57.03252656 207.02807063 85.54879031 32.22337781 13.36699875 64.38734531 26.85281437l3.56453344 1.54463063a39.89900531 39.89900531 0 0 1 4.00415812 2.00802c1.36640437 0.67726125 1.36640437 0.67726125 6.65379469 5.07351844 2.37635531 2.37635531 2.37635531 2.37635531 6.10723313 8.127135 2.12683781 4.24179375 2.12683781 4.24179375 3.83781375 11.2876875a30.0490125 30.0490125 0 0 1 0.43962562 5.8695975c0 109.15787906-40.231695 253.98485062-105.11807531 351.04708218-63.72196687 95.27996438-142.56943406 157.19590125-210.99658313 157.19590031z m0.05940844-589.82325843q-96.06416156 39.6851325-191.54611594 80.79607875-22.70607469 9.79058344-45.15075 20.13961125c4.30120312 85.00222781 36.20377219 208.37071125 87.41422782 290.69953968 52.05406219 83.62394156 110.35793813 130.46190375 149.2469925 130.46190375 40.26733969 0 101.94564094-46.61220844 156.10277812-127.5746325 54.29971781-81.23570438 87.92514469-203.32095656 92.93925375-291.4243275q-23.46650813-9.80246531-46.95678-19.50987656-67.51225313-28.02911063-202.04960625-83.58829687z" fill="#8a8a8a" p-id="14611"></path>
  <path d="M758.0715875 533.98128594v21.04262625c-8.47170656 25.12995656-18.40487156 51.70949063-30.10842094 79.75048219 17.53750219 26.88846 27.18550406 50.25991406 28.9440075 70.41140718q0 20.19901969-8.75686968 28.93212469c-8.48358844 7.29541031-23.08629094 11.10946125-43.54671 11.39462344l-8.45982469-27.75582938a101.89811344 101.89811344 0 0 0 14.31754031 1.44957657c7.58057344-0.57032531 12.8442-1.73473969 15.44630906-3.77840438 2.37635531-2.0555475 3.79028625-5.54878969 3.79028719-10.24209094 0-19.86633-9.64800281-41.7882075-28.92024375-66.31219406a775.19085094 775.19085094 0 0 0 30.08465719-79.75048219H692.62676375v234.30862875h-26.87657813V533.98128594z m-0.59408906 107.81523843l-13.9967325-21.90999562c34.45715156-24.53586844 60.76340437-56.687955 79.16827593-96.14733375h24.53586844c15.76711687 36.23941781 42.65557688 68.08257844 81.2238225 95.2680825l-14.91162937 22.78924687a234.46309219 234.46309219 0 0 1-31.5579975-26.00920781v15.44630906h-92.89172719v-16.01663437a223.91207531 223.91207531 0 0 1-31.56988031 26.57953312z m92.32140281 116.25129938c12.27387469-30.96390938 22.80112875-68.35585875 31.85504156-112.75805719l27.17362313 7.30729313c-8.76875063 39.43561594-19.29600469 74.55814687-31.84316063 105.45076406h44.99628657v26.61517969H746.97400906v-26.61517969z m-39.72077813-18.70191562l-23.98930687 5.88147937a615.47601375 615.47601375 0 0 0-25.41511969-82.68528187l23.68038-8.18654344c9.67176562 24.55963125 18.11970844 52.873905 25.72404656 85.00222781z m24.84479344-188.42120907c-11.10946125 21.04262625-23.39521781 39.44749781-37.40383125 55.21461469h75.08094469a219.53958094 219.53958094 0 0 1-37.67711344-55.21461469z m17.82266531 174.72152063l-23.68038093 6.14287875a669.930195 669.930195 0 0 0-21.90999563-80.34457125l23.68038094-7.59245532a667.96970156 667.96970156 0 0 1 21.89811375 81.79414782z" fill="#8a8a8a" p-id="14612"></path>
</svg>