<svg t="1574587976766" class="icon" viewBox="0 0 1025 1024" version="1.1" xmlns="http://www.w3.org/2000/svg" p-id="19448" width="30" height="30">
  <path d="M692.736 826.88a68.096 68.096 0 1 0 136.192 0 68.096 68.096 0 1 0-136.192 0zM109.056 597.504c-24.576 0-44.544 19.968-44.544 44.544v71.168c0 24.576 19.968 44.544 44.544 44.544h3.584c23.552-42.496 68.096-71.168 120.32-71.168s96.768 28.16 120.32 71.168h265.728V596.992H109.056v0.512z" fill="#8a8a8a" p-id="19449"></path>
  <path d="M760.832 942.08c-63.488 0-115.712-52.224-115.712-115.712s52.224-115.712 115.712-115.712 115.712 52.736 115.712 116.224-52.224 115.2-115.712 115.2z m0-203.264c-48.128 0-87.04 38.912-87.04 87.04s38.912 87.04 87.04 87.04 87.04-38.912 87.04-87.04c0-47.104-38.4-87.04-87.04-87.04z" fill="#8a8a8a" p-id="19450"></path>
  <path d="M735.232 826.88a25.6 25.6 0 1 0 51.2 0 25.6 25.6 0 1 0-51.2 0z" fill="#8a8a8a" p-id="19451"></path>
  <path d="M161.792 826.88a68.096 68.096 0 1 0 136.192 0 68.096 68.096 0 1 0-136.192 0z" fill="#8a8a8a" p-id="19452"></path>
  <path d="M204.288 826.88a25.6 25.6 0 1 0 51.2 0 25.6 25.6 0 1 0-51.2 0z" fill="#8a8a8a" p-id="19453"></path>
  <path d="M229.888 942.08c-63.488 0-115.712-52.224-115.712-115.712S166.4 710.656 229.888 710.656 345.6 762.88 345.6 826.368 294.4 942.08 229.888 942.08z m0-203.264c-48.128 0-87.04 38.912-87.04 87.04s38.912 87.04 87.04 87.04 87.04-38.912 87.04-87.04c1.024-47.104-38.4-87.04-87.04-87.04z" fill="#8a8a8a" p-id="19454"></path>
  <path d="M930.304 334.848H742.912c-52.224 0-94.72 42.496-94.72 94.72v87.04l-442.88-442.88c-3.584-3.584-10.24-5.632-15.36-3.072-5.632 2.048-8.704 7.68-8.704 13.312v286.72c0 7.68 6.656 14.336 14.336 14.336 25.6 0 46.592 20.992 46.592 46.592s-20.992 46.592-46.592 46.592-46.592-20.992-46.592-46.592c0-7.68-6.656-14.336-14.336-14.336-7.68 0-14.336 6.656-14.336 14.336 0 41.472 34.304 74.752 74.752 74.752 40.448 0 74.752-34.304 74.752-74.752 0-36.864-26.624-67.072-60.416-73.728V118.272L377.856 286.72v252.928H94.72c-52.224 0-94.72 42.496-94.72 94.72v88.064c0 52.224 42.496 94.72 94.72 94.72h34.304c1.024-10.24 3.072-19.968 6.656-28.16H95.232c-36.864 0-66.048-30.208-66.048-66.048v-89.088c0-36.864 30.208-66.048 66.048-66.048H647.68v222.208H325.12c3.584 8.704 5.632 17.92 6.656 28.16h328.192c1.024-17.92 7.68-34.304 15.872-48.128V558.08c2.048-3.584 2.048-8.704 0-12.288V429.568c0-36.864 30.208-66.048 66.048-66.048H929.28c36.864 0 66.048 30.208 66.048 66.048v109.568H861.184c-7.68 0-14.336 6.656-14.336 14.336 0 7.68 6.656 14.336 14.336 14.336h134.144v156.16c0 36.864-30.208 66.048-66.048 66.048h-74.752c3.584 8.704 5.632 17.92 6.656 28.16h68.096c52.224 0 94.72-42.496 94.72-94.72v-294.4c1.024-51.712-41.472-94.208-93.696-94.208zM406.016 540.16V315.904L630.272 540.16H406.016z" fill="#8a8a8a" p-id="19455"></path>
  <path d="M861.184 581.632c-15.872 0-30.208-13.312-30.208-30.208 0-15.872 13.312-30.208 30.208-30.208h104.96v-46.592A69.924 69.924 0 0 0 896 404.48H779.776a69.924 69.924 0 0 0-70.144 70.144v218.624c15.36-5.632 30.208-8.704 47.104-8.704 53.248 0 99.328 29.184 122.88 72.704h15.36c39.936 0 71.68-32.256 71.68-71.68v-104.96H861.184v1.024z" fill="#8a8a8a" p-id="19456"></path>
</svg>