<svg t="1574587278083" class="icon" viewBox="0 0 1024 1024" version="1.1" xmlns="http://www.w3.org/2000/svg" p-id="12232" width="28" height="28">
  <path d="M967.706806 997.193717H56.293194V412.816754h911.413612v584.376963z m-857.801047-53.612565h804.188482V466.429319h-804.188482v477.151833z" fill="#8a8a8a" p-id="12233"></path>
  <path d="M940.900524 997.193717H83.099476c-10.722513 0-21.445026-5.361257-26.806282-21.445026-5.361257-10.722513 0-21.445026 10.722513-32.167539l428.900523-289.507854c10.722513-5.361257 21.445026-5.361257 32.16754 0l428.900523 289.507854c10.722513 5.361257 16.08377 21.445026 10.722513 32.167539-5.361257 16.08377-16.08377 21.445026-26.806282 21.445026z m-772.020943-53.612565h680.879581L512 713.04712l-343.120419 230.534032z" fill="#8a8a8a" p-id="12234"></path>
  <path d="M629.947644 782.743455c-5.361257 0-16.08377 0-21.445026-5.361256-10.722513-10.722513-10.722513-26.806283 0-37.528796l268.062827-273.424084H147.434555l262.701571 268.062828c10.722513 10.722513 10.722513 26.806283 0 37.528795-10.722513 10.722513-26.806283 10.722513-37.528796 0L61.65445 461.068063C56.293194 455.706806 50.931937 439.623037 56.293194 434.26178s16.08377-21.445026 26.806282-21.445026h857.801048c10.722513 0 21.445026 5.361257 26.806282 16.08377 5.361257 10.722513 0 21.445026-5.361256 26.806282l-310.95288 316.314136c-10.722513 10.722513-16.08377 10.722513-21.445026 10.722513z" fill="#8a8a8a" p-id="12235"></path>
  <path d="M940.900524 450.34555H83.099476C72.376963 450.34555 61.65445 444.984293 56.293194 434.26178c-5.361257-10.722513 0-21.445026 5.361256-26.806283l428.900524-396.732984c5.361257-5.361257 16.08377-10.722513 21.445026-10.722513 5.361257 0 16.08377 0 21.445026 5.361257l428.900524 396.732984c5.361257 5.361257 10.722513 16.08377 5.361256 26.806283-5.361257 16.08377-16.08377 21.445026-26.806282 21.445026zM147.434555 402.094241h729.13089L512 64.335079 147.434555 402.094241z" fill="#707070" p-id="12236"></path>
</svg>