<svg t="1574587857796" class="icon" viewBox="0 0 1024 1024" version="1.1" xmlns="http://www.w3.org/2000/svg" p-id="16840" width="30" height="30">
  <path d="M512 980C253.6 980 44 770.4 44 512S253.6 44 512 44s468 209.6 468 468-209.6 468-468 468zM512 104c-224.8 0-408 183.2-408 408s183.2 408 408 408 408-183.2 408-408-183.2-408-408-408z" fill="#8a8a8a" p-id="16841"></path>
  <path d="M363.2 492v146.4c49.6 54.4 184.8 66.4 404.8 38.4-18.4 19.2-28 39.2-29.6 58.4h-67.2c-100.8 1.6-163.2 0-188.8-4.8-37.6-4.8-72.8-16.8-105.6-36-15.2-8.8-25.6-13.6-31.2-13.6-10.4-1.6-30.4 21.6-60.8 69.6l-42.4-42.4c16.8-13.6 41.6-36 76.8-67.2v-160h-27.2c-16.8 0-30.4 0.8-40.8 2.4-4.8 1.6-6.4 1.6-6.4 0v-47.2c7.2 1.6 22.4 2.4 44.8 2.4h40.8c12 0 23.2-0.8 33.6-2.4h2.4c-2.4 0.8-3.2 20-3.2 56z m-33.6-240.8c10.4 18.4 26.4 54.4 47.2 110.4l-52 18.4c-10.4-40.8-24-76.8-40.8-108l45.6-20.8z m196-22.4c41.6 0 62.4 0.8 60.8 2.4 0 1.6-0.8 4-2.4 6.4-6.4 16.8-8.8 41.6-8.8 74.4h101.6c19.2 0 42.4-1.6 69.6-4.8v49.6c-19.2-3.2-42.4-4.8-69.6-4.8H575.2v47.2h92c15.2 0 31.2-0.8 49.6-2.4V440c-20.8-1.6-37.6-2.4-49.6-2.4H575.2v54.4h92c22.4 0 41.6-1.6 58.4-4.8h2.4c0 4.8-0.8 12.8-2.4 24.8-4.8 64.8-8.8 100.8-13.6 108-4.8 13.6-31.2 22.4-80.8 27.2-4.8-20.8-12-40-22.4-56 34.4 4.8 54.4 4.8 58.4 0 5.6-3.2 10.4-22.4 13.6-58.4H575.2v58.4c0 28.8 1.6 54.4 4.8 78.4h-54.4c3.2-27.2 4.8-54.4 4.8-80.8v-56h-72c-19.2 0-40.8 0.8-63.2 2.4V488c13.6 3.2 34.4 4.8 63.2 4.8h72v-54.4h-63.2c-15.2 0-32 0.8-52 2.4v-42.4c15.2 1.6 29.6 2.4 44.8 2.4h69.6V352H446.4c-16.8 0-32 1.6-47.2 4.8v-49.6c20.8 3.2 37.6 4.8 49.6 4.8h80.8c0.8-54.4-0.8-81.6-4-83.2z" fill="#8a8a8a" p-id="16842"></path>
</svg>