<svg t="1574587929885" class="icon" viewBox="0 0 1024 1024" version="1.1" xmlns="http://www.w3.org/2000/svg" p-id="18524" width="30" height="30">
  <path d="M412.234787 290.470831c-31.214742 0-62.440989 8.514157-90.813843 22.700585-17.028315 8.514157-19.870202 31.226247-5.683775 45.412674l96.497618 96.486112-34.05663 34.033618-96.486112-96.486112c-5.683775-5.683775-11.356045-8.514157-19.870202-8.514157q-17.03982 0-25.542472 17.028314c-36.898517 73.785528-25.542472 167.441258 36.887011 229.870742 39.740404 39.728899 87.983461 56.757213 139.068405 56.757213 22.700584 0 45.412674-2.841888 65.27137-11.344539l224.198472 224.221483c11.356045 11.344539 28.38436 11.344539 39.728899 0l79.423281-79.469303c11.356045-11.344539 11.356045-28.372854 0-39.728899l-19.870202-19.870202-204.282247-204.32827c25.542472-70.955146 8.514157-150.412944-45.412675-207.170157-39.728899-39.740404-90.813843-59.599101-139.056898-59.599102zM542.777528 537.427416c-8.514157 19.870202-2.830382 42.570787 14.197933 59.599101l204.328269 204.339775-39.728899 39.728899-204.339775-204.385798c-11.344539-11.356045-25.542472-17.028315-39.728899-17.028314a55.491596 55.491596 0 0 0-19.858696 2.88791c-14.197933 5.683775-31.226247 8.514157-48.254562 8.514157-36.887011 0-73.785528-14.186427-99.328-42.570786-34.056629-34.056629-48.243056-79.457798-39.728899-124.870472l65.271371 65.282876c11.356045 11.344539 25.542472 17.016809 39.728899 17.016809s28.38436-5.67227 39.728899-17.016809l34.068134-34.068135c22.700584-22.700584 22.700584-59.587596 0-79.457798l-65.282876-65.27137c8.514157-2.841888 17.028315-2.841888 25.542472-2.841888 36.887011 0 73.785528 14.197933 99.328 42.570787 39.740404 36.887011 53.926831 96.486112 34.056629 147.571056z m0 0" fill="#8a8a8a" p-id="18525"></path>
  <path d="M937.259146 114.515416H795.36036v-85.141573c0-14.186427-14.197933-28.372854-28.38436-28.372854s-28.372854 14.186427-28.372854 28.372854v85.141573H284.522427v-85.141573C284.522427 15.187416 270.336 1.000989 256.138067 1.000989S227.765213 15.187416 227.765213 29.373843v85.141573H85.866427C68.838112 114.515416 57.482067 125.871461 57.482067 142.88827v851.41573c0 17.028315 11.356045 28.372854 28.38436 28.372854h851.41573c17.028315 0 28.372854-11.344539 28.372854-28.372854v-851.41573c0-17.016809-11.344539-28.372854-28.372854-28.372854z m-28.384359 851.41573H114.250787V171.272629H227.765213v28.38436c0 14.186427 14.186427 28.372854 28.372854 28.372854s28.38436-14.186427 28.38436-28.372854v-28.38436h454.080719v28.38436c0 14.186427 14.186427 28.372854 28.372854 28.372854s28.38436-14.186427 28.38436-28.372854v-28.38436h113.514427z m0 0" fill="#8a8a8a" p-id="18526"></path>
</svg>