<svg t="1574588081068" class="icon" viewBox="0 0 1024 1024" version="1.1" xmlns="http://www.w3.org/2000/svg" p-id="21747" width="30" height="30">
  <path d="M372.6 441.1c-24.3 44.4-59 82.2-100.7 110.9l4.4-0.6h-31.1v-30.8c0-127 77.8-236 188.7-283.1 10.2-57.8 61.1-101.8 122.5-101.8s112.3 44 122.5 101.8c111 47.1 188.7 156.1 188.7 283.1v30.8s-94.4 40.9-95.8 30.8c0 0 8.8-9.2-44.2-14.2v-1.6c-2.6 0.1-5.2 0.4-7.8 0.4-121.4 0-263.8-79.1-326.7-171.9l-20.5 46.2z" fill="#8a8a8a" p-id="21748"></path>
  <path d="M827.4 732.1c-13.3 0-26-3-37.5-8.3v-49.1C789.7 832.4 665.4 960 512 960c-153.4 0-277.7-127.6-277.9-285.2v49.1c-11.5 5.2-24.1 8.3-37.5 8.3-51.7 0-93.7-43.8-93.7-97.7 0-37.1 20.1-69 49.3-85.6v-31.5c0-144.7 87.5-268.9 213-324.4C378 119.6 438.7 64 512 64c73.3 0 134 55.6 146.8 128.9 125.4 55.6 213 179.8 213 324.4v31.5c29.2 16.6 49.3 48.4 49.3 85.6-0.1 54-42 97.7-93.7 97.7z m-37.5-116v-27c-0.2-0.1-0.5-0.2-0.7-0.3 0.4 10.1 0.7 20.8 0.7 27.3z m-555.8 0.1c0-3.7 0.1-9 0.3-14.6h-0.3v14.6zM512 103.4c-46.9 0-86.7 30.4-103.5 73.5 32.8-9.7 67.5-15.1 103.5-15.1s70.7 5.4 103.5 15.1c-16.7-43.1-56.6-73.5-103.5-73.5z m323.8 414c0-176.8-145-320.1-323.8-320.1S188.2 340.6 188.2 517.4v20.2c2.8-0.3 5.5-0.9 8.4-0.9 13.3 0 26 3 37.5 8.3v16.8c43.8-32.7 80.6-74.4 106.8-122.9h40c-26.4 54.6-64.2 102.5-110.4 140.6-1.1 13.5-1.7 32.2-1.7 41.5v53.5c0 138 108.9 249.9 243.2 249.9 91.5 0 171.1-52 212.6-128.7-46 27.9-96.5 48-150 60.1-7.3 13.2-28.7 22.8-54.4 22.8-31.6 0-57.3-14.6-57.3-32.6s25.6-32.6 57.3-32.6c14.8 0 28.1 3.3 38.2 8.5 69.3-14.2 133.4-43.3 188.8-84.8 5-20.1 8-41 8-62.6V621c0-9.9-0.8-29.9-1.9-43.5-14.6-3.6-29.6-6.5-45.1-7.9v-1.2c-3 0.1-5.9 0.5-8.9 0.5-139.6 0-262.5-71.2-334.7-179.2H409c67 87 171.9 143.3 290.2 143.3 3 0 5.9-0.4 8.9-0.5v3.9c28.6 2.2 55.9 8.1 81.8 16.9V545c11.5-5.2 24.1-8.3 37.5-8.3 2.9 0 5.6 0.6 8.4 0.9v-20.2z m-405.9 91.5L402.7 634l27.3 25.2c-9.2 14.2-25.9 23.8-45.1 23.8-29.2 0-52.8-21.9-52.8-48.9s23.6-48.9 52.8-48.9c19.2 0 35.8 9.5 45 23.7z m216.8-23.7c19.1 0 35.7 9.5 45 23.7L664.4 634l27.3 25.2c-9.2 14.2-25.9 23.8-45.1 23.8-29.2 0-52.8-21.9-52.8-48.9 0.1-27 23.7-48.9 52.9-48.9z" fill="#8a8a8a" p-id="21749"></path>
</svg>