<svg t="1574587087237" class="icon" viewBox="0 0 1024 1024" version="1.1" xmlns="http://www.w3.org/2000/svg" p-id="4917" width="28" height="28">
  <path d="M705.2 161.4v0.2l81.2 212.7c0.1 0.3 0.2 0.5 0.2 0.8 3.7 16.1 12.9 30.6 25.8 40.9 13 10.4 29.3 16.1 46 16.1h26.2c5.9 0 10.5 5.1 9.9 10.9l-44.9 411.5c-0.5 5.1-4.8 8.9-9.9 8.9h-121c-5.1 0-9.4-3.9-9.9-9l-5-54.9c0-0.4-0.1-0.8-0.2-1.2-3.2-15.4-11.7-29.3-23.8-39.2-12.3-10.1-27.8-15.6-43.7-15.6H398.3c-15.9 0-31.5 5.6-43.8 15.7a69.01 69.01 0 0 0-23.8 39.3c-0.1 0.4-0.1 0.8-0.2 1.2l-5 54.9c-0.5 5.1-4.8 9-9.9 9H186.1c-5.1 0-9.4-3.9-9.9-8.9l-44.9-411.5c-0.6-5.9 4-10.9 9.9-10.9h24.6c16.7 0 33.1-5.7 46.2-16.1 13-10.3 22.2-24.9 26-41 0.1-0.3 0.1-0.5 0.2-0.8L320 161.9l0.1-0.4h385.1m9.4-64.1H310.7c-27.4 0-46.6 22.9-53 49.7-0.1 0.3-0.1 0.5-0.2 0.7l-81.9 212.4c-1.1 4.6-5.2 7.9-9.9 7.9h-50.8c-27.4 0-49.8 22.2-50.1 49.5 0 0.4 0 0.8 0.1 1.2l50.8 480.8c1.2 15.8 14.3 27.9 30.1 27.9H376c3.6 0 6.7-2.2 7.9-5.4 0.3-0.8 0.4-1.6 0.5-2.4l9-109.4c0.3-1.6 1.7-2.8 3.4-2.8H636c2.4 0 4.4 1.7 4.9 4l8.5 106.9c0 0.5 0.1 1 0.2 1.5 1.2 4.4 5.3 7.5 9.9 7.5h220.3c15.7 0 28.8-12.1 30-27.8l50.8-480.9c0-0.4 0.1-0.8 0.1-1.2-0.3-27.3-22.7-49.5-50.1-49.5h-52.4c-4.5 0-8.4-3.1-9.4-7.5l-81.3-213v-0.2c-7.7-26.5-22.6-50-50.1-50h-2.8z" fill="#515151" p-id="4918"></path>
  <path d="M624 310.2c-3.1 0-6.2 1.2-8.5 3.5L512.8 416.3 410.2 313.7c-2.3-2.3-5.4-3.5-8.5-3.5-3.1 0-6.2 1.2-8.5 3.5L364.9 342c-4.7 4.7-4.7 12.3 0 17l64.1 64.1h-54.2c-6.6 0-12 5.4-12 12v40c0 6.6 5.4 12 12 12H481v25H374.8c-6.6 0-12 5.4-12 12v40c0 6.6 5.4 12 12 12H481v115c0 6.6 5.4 12 12 12h40c6.6 0 12-5.4 12-12v-115h105.8c6.6 0 12-5.4 12-12v-40c0-6.6-5.4-12-12-12H545.1v-25h105.8c6.6 0 12-5.4 12-12v-40c0-6.6-5.4-12-12-12h-54.2l64.1-64.1c4.7-4.7 4.7-12.3 0-17l-28.3-28.3c-2.4-2.4-5.5-3.5-8.5-3.5z" fill="#707070" p-id="4919"></path>
</svg>