<svg t="1574587624766" class="icon" viewBox="0 0 1024 1024" version="1.1" xmlns="http://www.w3.org/2000/svg" p-id="13530" width="30" height="30">
  <path d="M511.168 0.256C229.312 0.256 0 229.568 0 511.424s229.312 511.168 511.168 511.168 511.104-229.312 511.104-511.168S793.024 0.256 511.168 0.256z m0 949.312A438.592 438.592 0 0 1 72.96 511.36a438.592 438.592 0 0 1 438.144-438.144 438.592 438.592 0 0 1 438.08 438.144 438.592 438.592 0 0 1-438.08 438.144z" fill="#8a8a8a" p-id="13531"></path>
  <path d="M658.432 511.424a36.48 36.48 0 1 0 0-72.96h-110.72v-17.28l135.232-141.376a36.288 36.288 0 1 0-52.352-50.368L514.688 351.36 391.936 228.8a36.48 36.48 0 0 0-51.648 0.064 36.48 36.48 0 0 0-0.64 51.648l135.04 135.36v22.528h-108.16a36.48 36.48 0 0 0 0 73.024h108.16v73.024h-108.16a36.48 36.48 0 1 0 0 73.024h108.16v108.544a36.48 36.48 0 1 0 72.96 0v-108.544h110.784a36.48 36.48 0 1 0 0-72.96h-110.72V511.36h110.72z" fill="#8a8a8a" p-id="13532"></path>
</svg>