<svg t="1574587786432" class="icon" viewBox="0 0 1069 1024" version="1.1" xmlns="http://www.w3.org/2000/svg" p-id="15828" width="30" height="30">
  <path d="M930.04210742 955.58124557c-41.33903028 0-71.32765957-31.94238692-71.32765956-71.3276587V128.84715621c-1.87622753-39.44729708 30.05065283-71.32765957 71.32765956-71.32765869a71.32765957 71.32765957 0 0 1 71.32765958 71.32765869v755.31339404c0 41.33903028-31.94238692 71.32765957-71.32765958 71.32765958z m-531.71668828 0c-41.33903028 0-71.40518965-31.94238692-71.40518877-71.3276587V442.62683356c0-41.33903028 31.94238692-71.32765957 71.40518877-71.32765958a71.32765957 71.32765957 0 0 1 71.32765958 71.32765958v441.53371669c1.87622753 41.33903028-30.05065283 71.32765957-71.32765958 71.32765958z m0 0M133.3896831 955.58124557c-39.44729708 0-71.32765957-30.06615937-71.32765868-71.3276587V587.29793385c0-41.33903028 31.94238692-71.32765957 71.32765868-71.32765958 41.33903028 0 71.40518965 31.94238692 71.40518966 71.32765958v296.8626164c1.87622753 41.33903028-30.06615937 71.32765957-71.32765958 71.32765958z m0 0" fill="#8a8a8a" p-id="15829"></path>
  <path d="M665.12187705 955.58124557c-41.33903028 0-71.32765957-31.94238692-71.32765869-71.3276587V297.95573326c0-41.33903028 31.92688037-71.32765957 71.32765869-71.32765957 41.33903028 0 71.40518965 31.94238692 71.40518965 71.32765957v586.20481699c0 41.33903028-31.94238692 71.32765957-71.40518965 71.32765958z m0 0" fill="#8a8a8a" p-id="15830"></path>
</svg>