<svg t="1574588034851" class="icon" viewBox="0 0 1024 1024" version="1.1" xmlns="http://www.w3.org/2000/svg" p-id="20471" width="30" height="30">
  <path d="M511.500488 1024c-69.032585 0-135.96722-13.586732-199.105561-40.260683C251.554341 957.964488 196.807805 921.100488 149.853659 874.146341c-46.954146-46.954146-83.918049-101.60078-109.692879-162.541268C13.586732 648.466732 0 581.432195 0 512.499512c0-69.032585 13.586732-135.96722 40.260683-199.105561C66.035512 252.553366 102.899512 197.806829 149.853659 150.852683c46.954146-46.954146 101.60078-83.918049 162.541268-109.692878C375.533268 14.585756 442.467902 0.999024 511.500488 0.999024c69.032585 0 135.96722 13.586732 199.105561 40.260683C771.446634 67.034537 826.193171 103.898537 873.147317 150.852683c46.954146 46.954146 83.918049 101.60078 109.692878 162.541268C1009.414244 376.532293 1023.000976 443.566829 1023.000976 512.499512c0 69.032585-13.586732 135.96722-40.260683 199.105561C956.965463 772.445659 920.101463 827.192195 873.147317 874.146341c-46.954146 46.954146-101.60078 83.918049-162.541268 109.692879-63.038439 26.574049-130.072976 40.16078-199.105561 40.16078z m0-951.171122C269.037268 72.828878 71.829854 270.036293 71.829854 512.499512S269.037268 952.170146 511.500488 952.170146 951.171122 754.962732 951.171122 512.499512 753.963707 72.828878 511.500488 72.828878z" fill="#8a8a8a" p-id="20472"></path>
  <path d="M451.259317 766.651317L334.773073 765.252683l0.699317-508.203707h189.315122c20.87961-1.498537 117.085659-5.095024 180.224 51.549658 33.667122 30.170537 51.849366 72.029659 52.648586 120.981854 1.098927 65.635902-25.075512 106.396098-47.353757 128.874146-58.642732 59.541854-148.055415 59.541854-181.722536 59.541854h-77.324488v148.654829z m0-264.341854h77.42439c18.382049 0 74.627122 0 99.10322-24.975609 3.596488-3.69639 14.585756-14.885463 14.086244-45.755317-0.299707-21.578927-7.79239-30.969756-14.286049-36.764098-23.477073-20.979512-75.326439-24.076488-95.306927-22.278244l-2.697366 0.199805h-78.523317v129.573463h0.199805z" fill="#8a8a8a" p-id="20473"></path>
</svg>