<svg t="1574499021391" class="icon" viewBox="0 0 1024 1024" version="1.1" xmlns="http://www.w3.org/2000/svg" p-id="27855" width="32" height="32">
  <path d="M893.44 259.584a21.9008 21.9008 0 0 0-18.2272-9.6256c-17.5104 0-27.4432 19.3536-17.8176 33.9968 51.2 77.5168 77.1072 173.1584 65.8432 275.2-21.1968 192.3584-177.5616 346.7776-370.0608 365.9264C291.0336 951.04 72.512 732.8768 97.7024 470.9376c18.3296-190.1568 168.96-345.9072 358.4896-370.2784 114.176-14.6432 220.3648 17.5104 303.0016 79.4624a22.0416 22.0416 0 0 0 12.9024 4.4032c20.992 0 30.208-26.88 13.4144-39.5264C696.2304 78.08 581.7472 42.8032 458.752 56.32 246.3872 79.6672 75.9936 251.4944 54.3872 463.9744 24.7936 754.3808 266.3552 996.7616 556.5568 968.704c216.9856-20.992 391.7824-197.7344 411.0336-414.8224A456.8448 456.8448 0 0 0 893.44 259.584z m0 0" fill="#1296db" p-id="27856"></path>
  <path d="M659.4048 289.1776H496.0512L348.0064 579.648l164.6336-32.9344L416 751.6544l257.4464-295.296-170.7648 24.768z m0 0" fill="#1296db" p-id="27857"></path>
</svg>