<svg t="1574498974509" class="icon" viewBox="0 0 1024 1024" version="1.1" xmlns="http://www.w3.org/2000/svg" p-id="26602" width="32" height="32">
  <path d="M451.584 822.272H227.328c-34.816 0-59.392-23.552-59.392-55.296V229.376c0-31.744 25.6-55.296 59.392-55.296h224.256c34.816 0 59.392 23.552 59.392 55.296v536.576c0 31.744-25.6 56.32-59.392 56.32z m-207.872-57.344h190.464V231.424H243.712v533.504z" fill="#1296db" p-id="26603"></path>
  <path d="M274.432 121.856h130.048V174.08H274.432zM397.312 500.736h-32.768V393.216s-1.024-1.024-1.024 0l-81.92 133.12h41.984v115.712s0 1.024 1.024 0l72.704-141.312z" fill="#1296db" p-id="26604"></path>
  <path d="M573.44 474.112c1.024-103.424 28.672-129.024 135.168-129.024 108.544 0 135.168 26.624 135.168 135.168H819.2C819.2 385.024 803.84 368.64 708.608 368.64s-110.592 15.36-110.592 110.592v302.08H573.44v-307.2z" fill="#1296db" p-id="26605"></path>
  <path d="M819.2 480.256h24.576v437.248H819.2zM352.256 781.312H327.68c0 108.544 26.624 135.168 135.168 135.168s135.168-26.624 135.168-135.168H573.44c0 95.232-15.36 110.592-110.592 110.592s-110.592-15.36-110.592-110.592z" fill="#1296db" p-id="26606"></path>
</svg>