<svg t="1574497122702" class="icon" viewBox="0 0 1024 1024" version="1.1" xmlns="http://www.w3.org/2000/svg" p-id="3356" width="32" height="32">
  <path d="M641.798244 591.64722l-32.493268-81.270635c-2.172878-6.493659-9.740488-10.839415-16.259122-10.839414-6.493659 0-12.987317 5.419707-14.086244 12.987317l-41.184781 157.146536-40.085853-201.55317c-2.172878-7.592585-7.592585-12.987317-15.160196-12.987317a16.284098 16.284098 0 0 0-16.259121 11.88839l-52.024196 178.825366-15.160195-42.283708a16.309073 16.309073 0 0 0-15.18517-10.839414h-80.171708a17.108293 17.108293 0 0 0-17.333073 17.333073c0 9.740488 7.56761 17.358049 17.333073 17.358049h68.258342l28.172488 77.998829c2.172878 6.493659 8.666537 10.839415 16.259121 10.839415 6.493659 0 12.987317-5.419707 15.160196-11.913366l47.703414-162.541269 41.159805 206.972878c1.073951 7.592585 7.592585 12.987317 15.185171 12.987318a15.185171 15.185171 0 0 0 15.160195-12.987318l46.604488-178.80039 18.407024 46.604488c2.172878 6.493659 8.666537 10.839415 15.160195 10.839415h93.208976c9.740488 0 17.333073-7.592585 17.333073-17.358049a17.108293 17.108293 0 0 0-17.333073-17.333073h-82.369561v-1.073951zM594.119805 128.674341c12.288 0 26.074537-10.989268 26.074536-25.974634 0-15.035317-13.786537-25.974634-26.074536-25.974634h-162.491317c-12.312976 0-26.099512 10.989268-26.099512 25.974634 0 15.010341 13.786537 26.024585 26.099512 26.024586h162.491317v-0.049952z" fill="#1296db" p-id="3357"></path>
  <path d="M760.007805 3.746341H269.112195C241.763902 3.746341 214.040976 15.434927 193.261268 35.740098a107.395122 107.395122 0 0 0-33.492292 77.174634V870.150244a105.147317 105.147317 0 0 0 32.193561 74.35239 110.19239 110.19239 0 0 0 77.174634 31.669073H573.44c0.699317 0 70.855805-0.274732 113.314341 22.577952l1.998049 0.399609h0.274732c1.623415 1.998049 4.420683 3.87122 8.766439 3.87122 10.614634 0 16.309073-5.494634 20.105366-9.290927l0.999024-0.899122 0.62439-1.198829a25.150439 25.150439 0 0 0-10.489756-32.268488c-52.44878-31.394341-127.300683-32.218537-135.717463-32.218537H269.112195a57.443902 57.443902 0 0 1-57.344-57.044292V112.86478a57.618732 57.618732 0 0 1 57.344-57.194146h491.020488c32.068683 0 60.366049 26.898732 60.366049 57.194146v757.235513c0 32.393366-25.974634 56.869463-60.366049 56.869463-12.312976 0-26.099512 11.189073-26.099512 26.074537 0 15.085268 10.989268 26.074537 26.099512 26.074536 27.173463 0 54.871415-11.48878 75.751024-31.369366 21.254244-20.305171 33.467317-47.278829 33.467317-74.252487V112.86478c0-26.973659-12.213073-54.696585-33.367414-75.875902-21.10439-21.054439-48.877268-33.217561-75.975805-33.217561z" fill="#1296db" p-id="3358"></path>
</svg>