<svg t="1574497498762" class="icon" viewBox="0 0 1024 1024" version="1.1" xmlns="http://www.w3.org/2000/svg" p-id="21318" width="32" height="32">
  <path d="M506.930693 861.782178c-96.316832 0-174.891089-73.50495-174.891089-164.752475-2.534653-12.673267 0-27.881188 5.069307-45.623762 5.069307-15.207921 12.673267-32.950495 20.277228-48.158416 2.534653-5.069307 7.60396-15.207921 12.673267-22.811881 45.623762-76.039604 114.059406-154.613861 116.594059-159.683169l20.277228-22.811881 20.277228 22.811881c2.534653 5.069307 86.178218 103.920792 131.80198 185.029703 7.60396 12.673267 15.207921 30.415842 20.277228 45.623763 5.069307 17.742574 7.60396 30.415842 5.069307 43.089109-2.534653 93.782178-81.108911 167.287129-177.425743 167.287128z m0-382.732673c-22.811881 30.415842-63.366337 81.108911-91.247525 129.267327-5.069307 7.60396-10.138614 15.207921-12.673267 22.811881-7.60396 12.673267-12.673267 22.811881-15.207921 35.485148-7.60396 17.742574-7.60396 22.811881-7.60396 22.811882v5.069307c0 63.366337 55.762376 116.594059 124.19802 116.594059s124.19802-53.227723 124.198019-116.594059v-5.069307s0-5.069307-2.534653-20.277228c-2.534653-12.673267-7.60396-25.346535-15.207921-35.485149-27.881188-53.227723-76.039604-119.128713-103.920792-154.613861z" fill="#1296db" p-id="21319"></path>
  <path d="M876.990099 253.465347H441.029703V144.475248h76.039604V38.019802H76.039604v106.455446h78.574257V253.465347h-17.742574c-76.039604 0-136.871287 60.831683-136.871287 136.871287V887.128713c0 76.039604 60.831683 136.871287 136.871287 136.871287h740.118812c76.039604 0 136.871287-60.831683 136.871287-136.871287V390.336634c0-76.039604-60.831683-136.871287-136.871287-136.871287z m65.90099 633.663366c0 35.485149-30.415842 65.90099-65.90099 65.90099H136.871287c-35.485149 0-65.90099-30.415842-65.90099-65.90099V390.336634c0-35.485149 30.415842-65.90099 65.90099-65.90099h740.118812c35.485149 0 65.90099 30.415842 65.90099 65.90099V887.128713z" fill="#1296db" p-id="21320"></path>
</svg>