<svg t="1574497554860" class="icon" viewBox="0 0 1024 1024" version="1.1" xmlns="http://www.w3.org/2000/svg" p-id="22644" width="32" height="32">
  <path d="M890.24585347 217.59030214H615.49921983l-19.48430909 0.17875513 0.71502052 19.48430908c0.35751025 10.9040629 0.17875514 275.1041439 0 402.73530618L153.23845562 59.92827814c-6.25642953-8.22273595-18.05426803-9.83153211-26.277004-3.57510258s-9.83153211 18.05426803-3.5751026 26.277004l25.20447324 32.89094378V456.58590994c0 10.36779749 8.40149107 18.76928857 18.76928856 18.76928857 21.62937063 0 39.32612843 22.70190142 39.32612842 50.76645671s-17.69675779 50.7664567-39.32612842 50.76645668-39.32612843-22.70190142-39.32612845-50.76645668c0-10.36779749-8.40149107-18.76928857-18.76928856-18.76928856s-18.76928857 8.40149107-18.76928857 18.76928856c0 48.62139514 34.49973995 88.12627873 76.68595046 88.12627871 42.36496562 0 76.68595044-39.50488357 76.68595042-88.12627871 0-41.11367972-24.66820784-75.79217481-58.09541699-85.44495177V164.50002875L553.11367972 644.81506102H56.53193068v200.02698964h86.51748258c10.36779749 0 18.76928857-8.40149107 18.76928854-18.76928859s-8.40149107-18.76928857-18.76928854-18.76928857h-48.97890543v-125.12859045h521.428712c6.07767442 0 11.44032827-3.03883719 15.01543086-7.50771544 0.17875514-0.17875514 0.35751025-0.35751025 0.53626538-0.71502052 0.35751025-0.5362654 0.71502051-1.25128592 1.07253078-1.78755127 0.17875514-0.5362654 0.5362654-0.89377566 0.71502053-1.25128592l0.53626538-1.60879616c0.17875514-0.71502051 0.5362654-1.25128592 0.53626539-1.96630641 0.17875514-0.5362654 0.17875514-1.07253078 0.17875512-1.43004106 0.17875514-0.71502051 0.17875514-1.43004102 0.17875512-2.32381668 0-16.26671677 0.17875514-80.0822979 0.17875515-153.72941114h335.70213272v271.70779645c0 10.36779749 8.40149107 18.76928857 18.76928855 18.76928856s18.76928857-8.40149107 18.76928859-18.76928856V488.04681269l-117.44211993-270.45651055z m-255.97734508 37.359822h231.30913725l94.2039531 217.36623717H634.26850839c0.17875514-86.69623767 0.17875514-178.04010871 0-217.36623717z" fill="#1296db" p-id="22645"></path>
  <path d="M650.53522516 807.3034735h-156.58949319c-10.36779749 0-18.76928857 8.40149107-18.76928859 18.76928857s8.40149107 18.76928857 18.76928859 18.76928859h156.58949319c10.36779749 0 18.76928857-8.40149107 18.76928858-18.76928859s-8.40149107-18.76928857-18.76928858-18.76928857zM812.12986201 293.38247695h20.02057447c4.46887824 0 8.04398081-3.57510257 8.04398081-8.04398081s-3.57510257-8.04398081-8.04398081-8.04398082h-20.02057447c-4.46887824 0-8.04398081 3.57510257-8.04398082 8.04398082s3.57510257 8.04398081 8.04398082 8.04398081zM900.79240611 427.44882386c1.25128592 3.03883719 4.29012309 4.82638849 7.32896028 4.8263885 1.07253078 0 2.14506155-0.17875514 3.21759233-0.71502051 4.11136799-1.78755127 5.89891926-6.43518466 4.11136798-10.54655264l-47.90637465-108.32560832c-1.78755127-4.11136799-6.43518466-5.89891926-10.54655262-4.11136797-4.11136799 1.78755127-5.89891926 6.43518466-4.11136797 10.54655263l47.90637465 108.32560831zM823.03392487 709.34566268c-70.2507658 0-127.45240715 57.20164137-127.45240712 127.45240715s57.20164137 127.45240715 127.45240712 127.45240715 127.45240715-57.20164137 127.45240717-127.45240715-57.20164137-127.45240715-127.45240717-127.45240715z m0 217.54499227c-49.69392593 0-90.09258514-40.39865921-90.09258513-90.09258512 0-49.69392593 40.39865921-90.09258514 90.09258513-90.09258515s90.09258514 40.39865921 90.09258515 90.09258515c-0.17875514 49.69392593-40.57741434 90.09258514-90.09258515 90.09258512zM316.44188861 709.34566268c-70.2507658 0-127.45240715 57.20164137-127.45240717 127.45240715s57.20164137 127.45240715 127.45240717 127.45240715 127.45240715-57.20164137 127.45240714-127.45240715-57.20164137-127.45240715-127.45240714-127.45240715z m0 217.54499227c-49.69392593 0-90.09258514-40.39865921-90.09258515-90.09258512 0-49.69392593 40.39865921-90.09258514 90.09258515-90.09258515 49.69392593 0 90.09258514 40.39865921 90.09258512 90.09258515-0.17875514 49.69392593-40.39865921 90.09258514-90.09258512 90.09258512z" fill="#1296db" p-id="22646"></path>
</svg>