<svg t="1574497676444" class="icon" viewBox="0 0 1026 1024" version="1.1" xmlns="http://www.w3.org/2000/svg" p-id="25599" width="32" height="32">
  <path d="M514.438095 109.714286c-214.552381 0-390.095238 175.542857-390.095238 390.095238s175.542857 390.095238 390.095238 390.095238 390.095238-175.542857 390.095238-390.095238-175.542857-390.095238-390.095238-390.095238z m-112.152381 397.409524h138.971429v-56.076191h-121.904762v-39.009524h121.904762v-56.07619h-136.533333V316.952381h136.533333V231.619048l51.2 7.314285-7.314286 17.066667V316.952381h180.419048v39.009524H585.142857v56.07619h148.72381v39.009524H585.142857v56.076191h160.914286l-7.314286 112.15238c-2.438095 24.380952-19.504762 39.009524-48.761905 43.885715-14.628571 2.438095-29.257143 4.87619-41.447619 4.87619-2.438095-7.314286-2.438095-14.628571-4.87619-19.504762-4.87619-14.628571-12.190476-24.380952-19.504762-29.257143h48.761905c4.87619 0 7.314286-2.438095 9.752381-2.438095 7.314286-4.87619 9.752381-9.752381 12.190476-17.066666l2.438095-51.2H585.142857v146.285714h-46.323809v-146.285714h-138.971429v-41.447619z m-78.019047-248.685715c7.314286 12.190476 12.190476 21.942857 14.628571 29.257143 12.190476 21.942857 24.380952 41.447619 39.009524 60.952381l-46.32381 24.380952c-4.87619-12.190476-9.752381-21.942857-14.628571-29.257142-12.190476-24.380952-24.380952-43.885714-39.009524-63.390477l46.32381-21.942857z m453.485714 475.428572c-7.314286 9.752381-14.628571 19.504762-17.066667 29.257143H485.180952c-21.942857-2.438095-39.009524-7.314286-51.2-12.190477-36.571429-12.190476-63.390476-34.133333-82.895238-60.952381-9.752381 7.314286-19.504762 14.628571-26.819047 21.942858-19.504762 17.066667-36.571429 36.571429-51.2 56.07619l-34.133334-46.32381c12.190476-7.314286 21.942857-14.628571 29.257143-19.504761 21.942857-17.066667 41.447619-31.695238 56.076191-48.761905v-163.352381H243.809524v-41.447619h124.342857v204.8c9.752381 12.190476 17.066667 21.942857 24.380952 29.257143 21.942857 19.504762 46.32381 31.695238 73.142857 36.571428h319.390477c-2.438095 7.314286-4.87619 12.190476-7.314286 14.628572z" fill="#1296db" p-id="25600"></path>
  <path d="M514.438095 989.866667c-65.828571 0-131.657143-12.190476-190.171428-39.009524A488.350476 488.350476 0 0 1 63.390476 689.980952C36.571429 629.028571 24.380952 565.638095 24.380952 499.809524s12.190476-131.657143 39.009524-190.171429A488.350476 488.350476 0 0 1 324.266667 48.761905C385.219048 21.942857 448.609524 9.752381 514.438095 9.752381s131.657143 12.190476 190.171429 39.009524a488.350476 488.350476 0 0 1 260.87619 260.87619c26.819048 60.952381 39.009524 124.342857 39.009524 190.171429s-12.190476 131.657143-39.009524 190.171428A488.350476 488.350476 0 0 1 704.609524 950.857143c-58.514286 26.819048-124.342857 39.009524-190.171429 39.009524z m0-924.038096c-238.933333 0-436.419048 195.047619-436.419047 433.980953s195.047619 433.980952 433.980952 433.980952 436.419048-195.047619 436.419048-433.980952-195.047619-433.980952-433.980953-433.980953z m-2.438095 0" fill="#1296db" p-id="25601"></path>
  <path d="M975.238095 1016.685714L836.266667 877.714286c-9.752381-9.752381-9.752381-26.819048 0-36.571429l7.314285-7.314286c9.752381-9.752381 26.819048-9.752381 36.571429 0l138.971429 138.971429c9.752381 9.752381 9.752381 26.819048 0 36.571429l-7.314286 7.314285c-12.190476 9.752381-26.819048 9.752381-36.571429 0z m0 0" fill="#1296db" p-id="25602"></path>
</svg>