<svg t="1574496821257" class="icon" viewBox="0 0 1024 1024" version="1.1" xmlns="http://www.w3.org/2000/svg" p-id="2170" width="32" height="32"><path d="M954.24 325.312a477.792 477.792 0 0 0-102.72-152.384 477.76 477.76 0 0 0-339.008-140.448A477.792 477.792 0 0 0 173.504 172.896a477.792 477.792 0 0 0-140.48 339.04A477.792 477.792 0 0 0 173.44 850.944a477.76 477.76 0 0 0 339.072 140.448 477.792 477.792 0 0 0 339.008-140.416 477.76 477.76 0 0 0 140.416-339.04 476.48 476.48 0 0 0-37.696-186.624z m-406.24 36.352a2209.408 2209.408 0 0 0 159.456-7.808c11.264 38.144 18.464 79.136 21.536 122.56h-180.992v-114.752z m0-71.104V125.696a382.976 382.976 0 0 1 67.808 60.16 418.88 418.88 0 0 1 65.216 98.784c-46.528 3.488-91.136 5.28-133.024 5.92z m-71.04-160.672v160.608a2262.464 2262.464 0 0 1-127.168-5.664 419.616 419.616 0 0 1 62.912-96.224 385.536 385.536 0 0 1 64.288-58.72z m-121.056 226.56c40.32 2.752 80.672 4.48 121.088 5.12v114.88h-175.04c3.072-43.392 10.24-84.32 21.472-122.432 10.496 0.864 21.312 1.696 32.48 2.432z m-125.12 120H105.6a405.088 405.088 0 0 1 40.096-144.608c22.496 3.968 58.656 9.728 105.92 15.136a655.744 655.744 0 0 0-20.864 129.44z m-0.96 71.008a465.92 465.92 0 0 0 25.632 129.6c-48.928 5.536-86.336 11.488-109.44 15.552a405.056 405.056 0 0 1-40.384-145.152h124.192z m71.136 0h176v115.456a2358.848 2358.848 0 0 0-148.384 7.136 401.312 401.312 0 0 1-27.616-122.592z m176 186.56v146.176a689.536 689.536 0 0 1-62.176-66.304 592.064 592.064 0 0 1-52.576-75.104c38.208-2.56 76.48-4.16 114.784-4.768z m71.04 151.68v-151.744c38.176 0.544 78.56 2.112 120.64 5.024a592.16 592.16 0 0 1-52.48 74.912c-23.936 29.216-48 53.44-68.16 71.808z m58.336-221.344a2289.76 2289.76 0 0 0-58.336-1.536v-115.36h181.984a401.376 401.376 0 0 1-27.68 122.752 2214.08 2214.08 0 0 0-96-5.856z m194.784-116.896h118.24a405.088 405.088 0 0 1-40.32 144.992 2023.04 2023.04 0 0 0-103.712-14.912c14.944-42.944 23.584-86.496 25.792-130.08z m-0.96-71.04a655.584 655.584 0 0 0-20.96-129.92 2021.536 2021.536 0 0 0 100.16-14.496 405.12 405.12 0 0 1 40 144.416h-119.2z m1.12-253.28c13.6 13.6 26.24 28.128 37.792 43.456-27.712 4.288-55.488 8-83.36 11.072a494.24 494.24 0 0 0-92.864-145.664 407.488 407.488 0 0 1 138.432 91.136zM371.392 128.48a494.336 494.336 0 0 0-96.32 149.632 1922.08 1922.08 0 0 1-89.056-11.648c11.552-15.296 24.128-29.76 37.696-43.328a407.104 407.104 0 0 1 147.68-94.656zM223.712 800.736a414.464 414.464 0 0 1-37.28-42.784 1935.68 1935.68 0 0 1 98.368-12.576 644.608 644.608 0 0 0 76.416 115.2c12.64 15.328 25.856 30.144 39.68 44.384a406.144 406.144 0 0 1-177.184-104.224z m408.672 101.824c12.96-13.536 25.44-27.52 37.344-41.984a644.8 644.8 0 0 0 76.224-114.816c31.008 3.296 61.888 7.328 92.704 12.064-11.456 15.136-23.936 29.472-37.376 42.88-47.968 48-105.792 82.56-168.896 101.856z" fill="#1296db" fill-opacity=".65" p-id="2171"></path></svg>