<svg t="1574497355378" class="icon" viewBox="0 0 1024 1024" version="1.1" xmlns="http://www.w3.org/2000/svg" p-id="19033" width="32" height="32">
  <path d="M512 653.473684c-145.515789 0-264.084211-118.568421-264.084211-262.736842 0-94.315789 51.2-180.547368 132.042106-227.705263 80.842105-47.157895 183.242105-47.157895 264.08421 0 80.842105 47.157895 132.042105 134.736842 132.042106 227.705263 0 144.168421-118.568421 262.736842-264.084211 262.736842z m0-459.452631c-33.684211 0-68.715789 8.084211-98.357895 25.6-60.631579 35.031579-98.357895 99.705263-98.357894 169.768421 0 107.789474 87.578947 195.368421 196.715789 195.368421S708.715789 498.526316 708.715789 389.389474c0-70.063158-37.726316-134.736842-98.357894-169.768421-29.642105-16.168421-64.673684-25.6-98.357895-25.6z" fill="#1296db" p-id="19034"></path>
  <path d="M512 1018.610526c-121.263158 0-233.094737-8.084211-316.631579-21.557894-44.463158-6.736842-80.842105-16.168421-105.094737-26.947369-12.126316-5.389474-21.557895-10.778947-26.947368-16.168421L51.2 943.157895v-16.168421c2.694737-115.873684 98.357895-235.789474 233.094737-289.684211l21.557895-8.08421 16.168421 16.168421c49.852632 52.547368 118.568421 80.842105 189.978947 80.842105 72.757895 0 140.126316-28.294737 189.978947-80.842105l16.168421-16.168421 21.557895 8.08421c134.736842 53.894737 231.747368 173.810526 234.442105 291.031579v16.168421l-12.126315 10.778948c-6.736842 5.389474-16.168421 10.778947-26.947369 16.168421-24.252632 10.778947-59.284211 18.863158-105.094737 26.947368-84.884211 12.126316-196.715789 20.210526-317.978947 20.210526zM119.915789 909.473684c14.821053 5.389474 40.421053 13.473684 86.231579 20.210527 79.494737 13.473684 191.326316 20.210526 305.852632 20.210526S739.705263 943.157895 817.852632 929.684211c45.810526-6.736842 71.410526-14.821053 86.231579-20.210527-12.126316-78.147368-79.494737-158.989474-171.11579-202.105263-60.631579 55.242105-138.778947 84.884211-222.315789 84.884211-83.536842 0-160.336842-29.642105-222.31579-84.884211-88.926316 44.463158-156.294737 123.957895-168.421053 202.105263z" fill="#1296db" p-id="19035"></path>
  <path d="M875.789474 284.294737C832.673684 123.957895 685.810526 5.389474 512 5.389474S191.326316 123.957895 148.210526 282.947368c-40.421053 8.084211-71.410526 48.505263-71.410526 97.010527 0 55.242105 40.421053 98.357895 87.578947 98.357894 22.905263 0 35.031579-48.505263 35.031579-98.357894h1.347369c-1.347368-169.768421 138.778947-309.894737 311.242105-309.894737 168.421053 0 305.852632 133.389474 312.589474 299.115789-1.347368 52.547368 9.431579 110.484211 35.031579 110.484211 47.157895 0 87.578947-44.463158 87.578947-99.705263-1.347368-47.157895-30.989474-87.578947-71.410526-95.663158z" fill="#1296db" p-id="19036"></path>
</svg>