<svg t="1574497652317" class="icon" viewBox="0 0 1107 1024" version="1.1" xmlns="http://www.w3.org/2000/svg" p-id="24602" width="32" height="32">
  <path d="M1.21773 152.935784c2.739892-9.299027 4.787892-18.819459 8.302702-27.814054 14.474378-37.085405 42.841946-60.969514 83.359136-72.344216 8.081297-2.269405 16.937514-2.795243 25.461621-2.878271 30.996757-0.332108 61.965838-0.166054 92.934919-0.138378 12.398703 0 24.437622 10.24 25.433946 21.11654 1.660541 17.906162-8.136649 28.090811-21.808432 29.585298-14.225297 1.549838-28.672 1.273081-43.035676 1.466811-16.300973 0.221405-32.57427 0.110703-48.875243 0.027675-24.492973-0.083027-41.707243 11.264-54.299676 29.612973-8.053622 11.734486-11.125622 24.631351-11.125622 38.635243 0.166054 229.680432 0.083027 459.333189 0.138379 689.013622 0 30.803027 29.557622 63.515676 68.109838 63.238919 113.830054-0.747243 227.632432-0.276757 341.462486-0.276757 9.40973 0 15.830486 5.977946 15.858162 14.806487v37.417513h-7.970594c-119.088432 0-238.176865 0.276757-357.292973-0.19373-27.122162-0.110703-51.144649-9.852541-71.87373-26.43027a118.175135 118.175135 0 0 1-41.181405-62.297946c-1.328432-4.704865-2.407784-9.492757-3.597838-14.225297V152.935784zM641.494486 0.083027c4.843243 1.273081 9.686486 2.490811 14.502055 3.874595 21.614703 6.088649 39.022703 17.546378 49.511783 36.199783 4.206703 7.472432 6.365405 16.439351 7.278703 24.935784 1.383784 12.703135 1.190054 25.655351-5.479784 37.500541-12.979892 23.026162-33.764324 36.365838-60.997189 41.319784-6.171676 1.107027-12.620108 1.300757-18.930162 1.328432-91.551135 0.055351-183.10227 0.387459-274.653406-0.138378-32.546595-0.19373-66.172541-19.179243-75.776-50.148325-9.658811-31.162811-2.048-61.080216 31.993082-81.864648 10.461405-6.365405 22.085189-10.018595 34.42854-11.789838 0.747243-0.110703 1.383784-0.802595 2.075676-1.21773H641.522162z m-147.622054 56.043243h-143.138594a17.241946 17.241946 0 0 0-17.546379 13.782487 15.609081 15.609081 0 0 0 9.40973 17.158919c5.31373 1.937297 11.291676 3.293405 16.965189 3.321081 89.226378 0.19373 178.452757 0.138378 267.706811 0.083027 3.570162 0 7.195676-0.553514 10.655135-1.245406 12.48173-2.546162 16.024216-7.832216 14.557406-21.420973-0.719568-6.918919-8.136649-11.679135-18.210595-11.679135h-140.398703z" fill="#2494E0" p-id="24603"></path>
  <path d="M1088.954811 602.527135c0 26.956108 0.304432 53.912216-0.083027 80.868324-0.525838 35.424865-5.092324 70.489946-19.511352 103.590055a279.718054 279.718054 0 0 1-39.797621 65.702054c-15.387676 18.819459-31.55027 37.113081-48.294054 54.936216-28.422919 30.221838-62.104216 54.880865-98.110271 76.910702a271.443027 271.443027 0 0 1-96.117621 35.729298c-25.350919 4.428108-50.646486 4.151351-75.277838-2.850595a392.717838 392.717838 0 0 1-41.928649-15.276973c-30.221838-12.454054-57.371676-29.50227-82.473513-49.262702a1247.730162 1247.730162 0 0 1-40.12973-33.238487 447.321946 447.321946 0 0 1-76.661621-85.019676c-21.033514-30.360216-36.393514-62.989838-42.343784-98.885189-2.601514-15.470703-5.12-31.107459-5.396757-46.688865-1.051676-58.478703-1.992649-116.985081-1.273081-175.463783 0.387459-32.740324 18.265946-57.011892 50.120649-71.763028 36.338162-16.826811 74.94573-27.620324 114.577297-35.424864 17.989189-3.597838 35.978378-7.168 54.133621-9.963244 13.11827-2.020324 26.457946-3.404108 39.742271-3.874594 34.234811-1.273081 68.469622-2.573838 102.704432-2.407784 19.151568 0.083027 38.330811 2.684541 57.427027 4.843243 18.293622 2.075676 36.642595 4.317405 54.687135 7.749189 25.461622 4.898595 51.00627 9.852541 75.831352 16.826811 23.330595 6.559135 46.329081 14.668108 68.469621 24.077838 22.694054 9.658811 39.133405 25.849081 45.775568 48.902919a85.794595 85.794595 0 0 1 3.736216 22.140541c0.442811 29.280865 0.19373 58.56173 0.19373 87.842594z m-53.63546 3.763892c0-30.553946 0-61.135568-0.055351-91.689513 0-2.24173-0.553514-4.511135-1.024-6.752865-2.767568-12.841514-13.865514-19.400649-25.074162-23.358271a915.788108 915.788108 0 0 0-79.705946-24.38227 597.158054 597.158054 0 0 0-98.719135-16.854486c-22.33427-1.798919-44.696216-4.151351-67.085838-4.898595a572.139243 572.139243 0 0 0-97.335351 4.92627c-14.474378 1.992649-29.059459 3.459459-43.367784 6.199352-19.954162 3.791568-40.102054 7.472432-59.502703 13.173621-23.247568 6.835892-46.052324 15.110919-68.469622 23.967135-13.727135 5.424432-20.341622 16.134919-20.258594 30.609298 0.304432 48.819892 0.221405 97.612108 0.083027 146.432-0.055351 18.736432 0.691892 37.362162 3.957622 55.93254 3.819243 21.504 10.24 42.122378 20.535351 61.63373 19.760432 37.472865 48.570811 68.829405 79.429189 98.608432 11.623784 11.180973 24.659027 21.144216 37.555892 31.079784 28.118486 21.670054 57.786811 40.96 92.575135 52.832865 19.123892 6.503784 37.804973 12.454054 58.949189 9.686487a220.824216 220.824216 0 0 0 56.126271-14.861838c32.546595-13.533405 60.692757-33.708973 86.763243-55.904865 18.432-15.692108 35.092757-33.238486 52.03027-50.36973 18.348973-18.542703 32.740324-39.74227 45.88627-61.63373 18.708757-31.135135 26.208865-65.037838 26.624-100.324324 0.332108-28.007784 0.083027-56.043243 0.083027-84.051027zM494.149189 285.391568l259.542487-0.027676c12.177297 0 20.701405 5.12 25.821405 15.027892 4.981622 9.603459 3.680865 19.483676-4.151351 26.707027-4.981622 4.594162-13.173622 8.856216-19.926487 8.856216-174.163027 0.470486-348.35373 0.359784-522.516757 0.387459-13.644108 0-28.395243-11.734486-28.173837-25.738378 0.19373-12.730811 13.561081-25.461622 28.505946-25.40627 86.984649 0.387459 173.941622 0.19373 260.898594 0.19373zM985.696865 370.937081l-56.458379-13.450378v-7.638487c0-61.329297-0.055351-122.658595 0.055352-183.987892 0.055351-15.000216-5.535135-28.173838-14.944865-39.908324a64.428973 64.428973 0 0 0-38.690595-23.247568 38.330811 38.330811 0 0 0-7.417081-0.691891c-28.893405-0.055351-57.814486 0.055351-86.707892-0.083027a36.808649 36.808649 0 0 1-20.895135-5.894919c-11.983568-7.970595-14.336-27.260541-4.483459-37.25146 6.448432-6.559135 13.782486-9.271351 23.385946-9.132973 28.672 0.359784 57.371676 0.359784 86.043675 0.027676 26.900757-0.276757 50.425081 8.136649 71.209514 23.16454 26.956108 19.456 42.565189 45.305081 47.519135 76.606271 0.83027 5.147676 1.328432 10.406054 1.328433 15.636756 0.110703 65.978811 0.055351 131.985297 0.055351 197.964109v7.887567zM367.200865 688.294054l5.75654 51.753514h-7.555459c-44.723892 0-89.447784 0.083027-134.171676 0-11.347027-0.027676-19.123892-5.479784-23.773405-14.861838-4.760216-9.658811-3.099676-18.681081 3.625513-27.01146 5.701189-7.084973 14.003892-10.156973 22.970811-10.212324 43.589189-0.276757 87.178378-0.110703 130.767568-0.083027 0.636541 0 1.300757 0.221405 2.380108 0.442811zM369.387243 486.898162l-2.656865 51.670487c-1.992649 0.083027-4.206703 0.276757-6.420756 0.276756-42.17773 0-84.355459 0.138378-126.53319-0.083027-16.799135-0.110703-26.347243-9.548108-28.505946-22.472648-2.186378-13.228973 5.036973-24.742054 20.48-29.05946a17.629405 17.629405 0 0 1 4.704865-0.581189h136.828541c0.664216 0 1.328432 0.166054 2.103351 0.276757z" fill="#2494E0" p-id="24604"></path>
  <path d="M695.683459 564.749838h-61.993513v191.543351h-32.823351V533.033514h127.252756v218.195027h-32.435892v-186.451027zM907.07027 835.528649h-35.148108v-15.802811h-78.543567v15.719784h-35.424865v-134.227027h149.11654v134.282378z m-35.673946-99.90919h-77.63027v50.176h77.63027V735.619459zM737.08627 677.389838v-32.657297h43.616865l-18.542703-41.734919 35.563244-12.896865c6.310054 17.048216 12.537081 34.179459 19.06854 51.2 0.553514 1.466811 2.988973 3.210378 4.621838 3.265729 9.132973 0.304432 18.321297 0.138378 27.952432 0.138379 6.918919-18.265946 13.754811-36.421189 20.646055-54.770162l36.144432 11.90054-19.317622 42.897298h39.631568v32.657297h-189.384649z" fill="#2494E0" p-id="24605"></path>
  <path d="M604.796541 839.237189l-18.598055-27.177513c11.208649-7.610811 22.887784-14.363676 33.072433-22.694054 14.723459-12.011243 21.061189-28.47827 25.295567-45.858595 5.535135-22.583351 5.590486-45.443459 5.452109-68.358919-0.166054-27.592649-0.027676-55.185297-0.027676-82.75027v-7.195676h28.921081v6.559135c0 35.231135 0.221405 70.46227-0.083027 105.721081-0.221405 29.557622-4.040649 58.644757-16.384 86.320433-10.24 22.998486-28.090811 39.548541-50.923243 51.974919-2.103351 1.162378-4.28973 2.214054-6.725189 3.459459zM811.672216 551.908324l-12.121946-26.347243c10.572108-1.577514 21.199568-2.490811 31.384216-4.953946 5.673514-1.383784 7.555459 0.415135 9.022271 4.428108 2.546162 7.084973 5.258378 14.14227 7.389405 21.337946 1.245405 4.234378 3.376432 5.535135 8.136649 5.452108 20.646054-0.276757 41.292108-0.110703 62.491675-0.110702v32.684973h-175.325405v-32.491244h69.023135zM695.600432 759.199135l47.795892 49.622487-25.40627 23.413621-45.111351-52.832865 22.721729-20.203243z" fill="#2494E0" p-id="24606"></path>
</svg>