<svg t="1574497625144" class="icon" viewBox="0 0 1029 1024" version="1.1" xmlns="http://www.w3.org/2000/svg" p-id="23646" width="32" height="32">
  <path d="M1006.933333 193.422222c-34.133333-28.444444-85.333333-79.644444-102.4-91.022222-11.377778-11.377778-34.133333-17.066667-45.511111 0-11.377778 17.066667-5.688889 34.133333 0 45.511111 17.066667 11.377778 45.511111 39.822222 68.266667 62.577778-17.066667 17.066667-39.822222 17.066667-56.888889 34.133333v28.444445c0 5.688889 5.688889 5.688889 5.688889 5.688889 17.066667 0 85.333333-11.377778 102.4-11.377778 5.688889 0 0 45.511111 0 45.511111v534.755555c0 28.444444-28.444444 22.755556-45.511111 22.755556-34.133333 0-45.511111-17.066667-45.511111-45.511111V403.911111c0-39.822222 0-45.511111-22.755556-45.511111h-119.466667V68.266667C739.555556 28.444444 705.422222 0 665.6 0H142.222222c-39.822222 0-68.266667 28.444444-68.266666 68.266667v881.777777H34.133333c-17.066667 5.688889-34.133333 17.066667-34.133333 39.822223s17.066667 34.133333 34.133333 34.133333h739.555556c17.066667 0 34.133333-17.066667 34.133333-34.133333s-17.066667-34.133333-34.133333-34.133334H739.555556V398.222222h73.955555c22.755556 0 22.755556 22.755556 22.755556 22.755556v398.222222c0 102.4 85.333333 91.022222 96.711111 91.022222 11.377778 0 96.711111 17.066667 96.711111-85.333333V227.555556s-5.688889-17.066667-22.755556-34.133334z m-341.333333 762.311111H142.222222V91.022222c0-11.377778 11.377778-22.755556 22.755556-22.755555h477.866666c11.377778 0 22.755556 11.377778 22.755556 22.755555v864.711111z" fill="#1296db" p-id="23647"></path>
  <path d="M415.288889 455.111111l5.688889 130.844445h102.4l-119.466667 216.177777-5.688889-130.844444H284.444444zM534.755556 244.622222H273.066667c-22.755556 0-39.822222-17.066667-39.822223-39.822222 0-22.755556 17.066667-39.822222 39.822223-39.822222h261.688889c22.755556 0 39.822222 17.066667 39.822222 39.822222 0 22.755556-17.066667 39.822222-39.822222 39.822222z" fill="#1296db" p-id="23648"></path>
</svg>